<svg viewBox="0 0 135.04 40.5" xmlns="http://www.w3.org/2000/svg"><g fill="#2d46b9"><path d="m20.25 0a20.25 20.25 0 1 0 20.25 20.25 20.25 20.25 0 0 0 -20.25-20.25zm9.29 29.21a1.26 1.26 0 0 1 -1.74.42c-4.75-2.91-10.74-3.56-17.8-1.95a1.26 1.26 0 0 1 -.56-2.46c7.72-1.77 14.33-1 19.67 2.25a1.27 1.27 0 0 1 .43 1.74zm2.46-5.51a1.59 1.59 0 0 1 -2.17.52c-5.43-3.35-13.73-4.32-20.16-2.36a1.58 1.58 0 0 1 -.92-3c7.35-2.23 16.5-1.15 22.75 2.69a1.6 1.6 0 0 1 .5 2.15zm.23-5.7c-6.53-3.92-17.29-4.28-23.53-2.39a1.89 1.89 0 0 1 -1.1-3.61c7.16-2.17 19-1.76 26.56 2.71a1.89 1.89 0 1 1 -1.93 3.29z"/><path d="m55.1 18.7c-3.5-.84-4.1-1.42-4.1-2.65s1.09-2 2.72-2a8 8 0 0 1 4.78 1.82.21.21 0 0 0 .17 0 .21.21 0 0 0 .15-.09l1.71-2.41a.23.23 0 0 0 0-.31 10.33 10.33 0 0 0 -6.72-2.33c-3.78 0-6.41 2.27-6.41 5.51 0 3.48 2.27 4.71 6.2 5.66 3.35.77 3.91 1.41 3.91 2.57s-1.14 2.07-3 2.07a8 8 0 0 1 -5.56-2.3.22.22 0 0 0 -.17 0 .21.21 0 0 0 -.16.08l-1.91 2.28a.22.22 0 0 0 0 .31 11.39 11.39 0 0 0 7.71 3c4.07 0 6.69-2.22 6.69-5.66-.02-2.91-1.75-4.52-6.01-5.55z"/><path d="m70.3 15.25a5.48 5.48 0 0 0 -4.4 2.11v-1.6a.24.24 0 0 0 -.23-.23h-3.13a.23.23 0 0 0 -.23.23v17.8a.23.23 0 0 0 .23.23h3.13a.23.23 0 0 0 .23-.23v-5.62a5.62 5.62 0 0 0 4.4 2c3.28 0 6.59-2.53 6.59-7.35s-3.31-7.34-6.59-7.34zm3 7.34c0 2.46-1.51 4.17-3.68 4.17a3.89 3.89 0 0 1 -3.75-4.17 3.89 3.89 0 0 1 3.75-4.17c2.08 0 3.63 1.76 3.63 4.17z"/><path d="m85.39 15.25a7.36 7.36 0 1 0 7.5 7.34 7.38 7.38 0 0 0 -7.5-7.34zm0 11.54a4 4 0 0 1 -3.93-4.2 3.88 3.88 0 0 1 3.88-4.14 4 4 0 0 1 4 4.2 3.9 3.9 0 0 1 -3.95 4.14z"/><path d="m101.9 15.53h-3.44v-3.53a.23.23 0 0 0 -.23-.23h-3.13a.23.23 0 0 0 -.23.23v3.52h-1.51a.23.23 0 0 0 -.22.23v2.69a.22.22 0 0 0 .22.23h1.51v7c0 2.81 1.4 4.24 4.16 4.24a5.8 5.8 0 0 0 2.94-.73.23.23 0 0 0 .11-.2v-2.58a.23.23 0 0 0 -.11-.2.24.24 0 0 0 -.22 0 4 4 0 0 1 -1.84.44c-1 0-1.45-.45-1.45-1.48v-6.48h3.44a.23.23 0 0 0 .23-.23v-2.69a.23.23 0 0 0 -.23-.23z"/><path d="m113.91 15.55v-.44c0-1.27.49-1.84 1.58-1.84a5.14 5.14 0 0 1 1.76.33.25.25 0 0 0 .21 0 .24.24 0 0 0 .1-.19v-2.67a.23.23 0 0 0 -.17-.22 8.73 8.73 0 0 0 -2.6-.37c-2.89 0-4.42 1.63-4.42 4.71v.66h-1.5a.23.23 0 0 0 -.23.23v2.7a.23.23 0 0 0 .23.23h1.5v10.74a.23.23 0 0 0 .23.23h3.13a.23.23 0 0 0 .23-.23v-10.74h2.92l4.48 10.74c-.51 1.13-1 1.35-1.69 1.35a3.59 3.59 0 0 1 -1.73-.49.22.22 0 0 0 -.18 0 .2.2 0 0 0 -.13.12l-1.07 2.33a.22.22 0 0 0 .1.29 6.61 6.61 0 0 0 3.35.86c2.31 0 3.59-1.08 4.71-4l5.44-14a.26.26 0 0 0 0-.21.21.21 0 0 0 -.19-.1h-3.26a.23.23 0 0 0 -.21.15l-3.34 9.54-3.66-9.55a.23.23 0 0 0 -.21-.14z"/><rect height="14.12" rx=".23" width="3.59" x="103.59" y="15.53"/><path d="m105.4 9.31a2.25 2.25 0 1 0 2.24 2.25 2.25 2.25 0 0 0 -2.24-2.25z"/><path d="m132.83 19.93a2.21 2.21 0 1 1 2.17-2.22 2.2 2.2 0 0 1 -2.17 2.22zm0-4.2a2 2 0 1 0 2 2 2 2 0 0 0 -1.99-2zm.49 2.21.62.87h-.52l-.56-.8h-.49v.8h-.44v-2.31h1c.54 0 .89.27.89.73a.7.7 0 0 1 -.49.71zm-.32-1.05h-.58v.73h.58c.28 0 .45-.14.45-.36s-.21-.37-.45-.37z"/></g></svg>